# xmcd
#
# Track frame offsets:
#	150
#	15315
#	28637
#	44312
#	56582
#	73697
#	85735
#	99204
#	114450
#	130977
#
# Disc length: 1887 seconds
#
# Revision: 1
# Processed by: cddbd v1.5.2PL0 Copyright (c) Steve Scherf et al.
# Submitted via: audiograbber 1.83.01
#
DISCID=76075d0a
DTITLE=Artist Robinson - Stop Look And Listen Artist Robinson
DYEAR=1900
DGENRE=
TTITLE0=You And Me
TTITLE1=Stop Look And Listen
TTITLE2=Big Montana Sky
TTITLE3=Dance By The Light
TTITLE4=Cut To The Chase
TTITLE5=Always Somebody´s Girl
TTITLE6=Back To The Boogie
TTITLE7=The Prairie Waltz
TTITLE8=Let´s Rock, Let´s Roll
TTITLE9=Daddy Played Guitar
EXTD=
EXTT0=
EXTT1=
EXTT2=
EXTT3=
EXTT4=
EXTT5=
EXTT6=
EXTT7=
EXTT8=
EXTT9=
PLAYORDER=
